<?xml version="1.0" standalone="no"?>
<!DOCTYPE svg PUBLIC "-//W3C//DTD SVG 20010904//EN"
 "http://www.w3.org/TR/2001/REC-SVG-20010904/DTD/svg10.dtd">
<svg version="1.0" xmlns="http://www.w3.org/2000/svg"
 width="2500.000000pt" height="2500.000000pt" viewBox="0 0 2500.000000 2500.000000"
 preserveAspectRatio="xMidYMid meet">

<g transform="translate(0.000000,2500.000000) scale(0.100000,-0.100000)"
fill="#000000" stroke="none">
<path d="M0 12500 l0 -12500 12500 0 12500 0 0 12500 0 12500 -12500 0 -12500
0 0 -12500z m6410 8204 c146 -108 344 -254 440 -325 96 -71 299 -220 450 -332
l275 -203 42 -409 c23 -226 83 -810 132 -1300 147 -1441 189 -1855 236 -2320
25 -242 74 -728 110 -1080 36 -352 85 -838 110 -1080 24 -242 103 -1018 175
-1725 72 -707 153 -1505 180 -1775 203 -1999 249 -2446 315 -3110 42 -412 79
-762 83 -777 l7 -28 95 53 c52 29 266 145 475 257 209 111 427 229 485 260 58
32 168 91 245 132 773 416 1870 1005 2395 1288 355 191 1075 578 1600 860 525
282 959 516 964 521 10 9 8 12 -125 317 -49 111 -130 295 -180 410 -95 216
-182 414 -298 680 -38 86 -120 272 -181 412 -61 140 -143 326 -181 413 -38 86
-100 228 -138 315 -38 86 -110 249 -159 362 -470 1070 -574 1309 -643 1464
l-79 178 102 132 c56 72 493 632 970 1244 477 612 868 1116 868 1120 0 4 -89
37 -197 73 -2643 881 -3815 1270 -3820 1266 -3 -3 0 -95 6 -204 15 -279 20
-361 26 -498 3 -66 8 -145 10 -175 3 -30 9 -152 15 -270 12 -247 26 -515 40
-745 5 -88 12 -218 15 -290 3 -71 15 -287 25 -480 11 -192 24 -447 30 -565 6
-118 15 -282 20 -365 5 -82 12 -206 15 -275 9 -203 25 -490 30 -560 3 -36 9
-166 15 -290 6 -124 17 -340 25 -480 8 -140 17 -302 20 -360 12 -223 35 -669
40 -760 3 -52 35 -642 70 -1310 51 -961 62 -1217 52 -1226 -19 -19 -1977
-1234 -1988 -1234 -5 0 -9 2448 -9 6350 0 5073 3 6350 13 6350 6 0 55 -20 107
-44 102 -46 1566 -708 2075 -938 171 -77 348 -158 393 -179 46 -22 85 -39 87
-39 2 0 36 -15 77 -34 150 -69 237 -109 1353 -613 627 -283 1446 -654 1820
-824 374 -169 984 -445 1355 -613 371 -168 676 -309 677 -313 2 -5 -452 -535
-1008 -1178 -557 -644 -1194 -1380 -1416 -1638 l-404 -467 164 -208 c90 -114
638 -805 1217 -1537 1525 -1925 1836 -2317 2312 -2920 411 -518 427 -540 405
-551 -12 -7 -337 -146 -722 -309 -385 -163 -729 -310 -765 -325 -67 -29 -551
-234 -1130 -480 -184 -78 -380 -161 -435 -185 -55 -23 -174 -74 -265 -113
-510 -216 -712 -302 -865 -367 -93 -40 -289 -123 -435 -185 -146 -62 -294
-125 -330 -140 -36 -15 -184 -78 -330 -140 -146 -62 -310 -131 -365 -155 -83
-36 -362 -154 -700 -297 -38 -16 -110 -47 -160 -68 -106 -46 -376 -160 -600
-255 -88 -37 -189 -80 -225 -95 -90 -39 -723 -307 -1160 -493 -201 -85 -710
-302 -1132 -481 -423 -179 -774 -326 -782 -326 -7 0 -105 25 -217 56 -338 92
-1581 431 -1626 443 l-41 11 -6 113 c-3 61 -8 213 -11 337 -7 282 -65 2519
-105 4015 -16 622 -45 1729 -65 2460 -19 732 -37 1416 -40 1520 -6 221 -70
2638 -85 3235 -5 223 -16 639 -24 925 -8 286 -18 644 -21 795 -3 151 -10 408
-15 570 -5 162 -14 489 -20 725 -5 237 -12 513 -15 615 -3 102 -10 334 -15
515 -5 182 -13 360 -16 398 -5 53 -4 67 7 67 8 0 133 -88 279 -196z"/>
</g>
</svg>
